<?xml version="1.0" encoding="utf-8"?>
<?xml-stylesheet type="text/xsl" href="rss1.xsl"?>
<rss version="2.0" xmlns:atom="http://www.w3.org/2005/Atom" xmlns:content="http://purl.org/rss/1.0/modules/content/" xmlns:dc="http://purl.org/dc/elements/1.1/" xmlns:media="http://search.yahoo.com/mrss/">
<channel>
 <title>Getty</title>
 <link>http://www.gettyimg.com/</link>
 <atom:link href="http://www.gettyimg.com/" rel="self" type="application/rss+xml" />

 
                <item>
                <title><![CDATA[【TIDAL】WEB-RiP - Lil Nas X - J CHRIST (TIDAL-1080p-LK72)]]></title>
                <link><![CDATA[https://sharemania.us/threads/lil-nas-x-j-christ-tidal-1080p-lk72.236171/]]></link>
                <description><![CDATA[<article>
<blockquote class="messageText SelectQuoteContainer ugc baseHtml">
<div style="text-align: center"><img src="https://i.imgur.com/JeXEYO0.jpg" class="bbCodeImage LbImage" alt="[​IMG]" data-url="https://i.imgur.com/JeXEYO0.jpg" style=""> <br>
<div class="bbCodeBlock bbCodeVfcHH HiddenContent">
<div class="attribution type">Hidden Content:</div>
<blockquote>You must reply before you can see the hidden data contained here.</blockquote>
</div></div>
<div class="messageTextEndMarker">&nbsp;</div>
</blockquote>
</article>]]></description>
                <author><![CDATA[luke72]]></author>
                </item>

                
                <item>
                <title><![CDATA[【Albums (lossless)】FLAC - Incubus - Make Yourself [Qobuz CD 16bit/44.1kHz]]]></title>
                <link><![CDATA[https://sharemania.us/threads/incubus-make-yourself-qobuz-cd-16bit-44-1khz.236173/]]></link>
                <description><![CDATA[<article>
<blockquote class="messageText SelectQuoteContainer ugc baseHtml">
<img src="https://static.qobuz.com/images/covers/29/52/0074646365229_600.jpg" class="bbCodeImage LbImage" alt="[​IMG]" data-url="https://static.qobuz.com/images/covers/29/52/0074646365229_600.jpg" style=""> <br>
<span style="font-size: 18px"><b>ABOUT THE ALBUM</b></span><br>
<ul>
<li>1 disc(s) - 13 track(s)</li>
<li>Total length: 00:48:03</li>
<li>Main artists: <a href="https://www.qobuz.com/nz-en/interpreter/incubus/159536" target="_blank" class="externalLink" rel="nofollow">Incubus</a></li>
<li>Composer: <a href="https://www.qobuz.com/nz-en/composer/various-composers/573076" target="_blank" class="externalLink" rel="nofollow">Various Composers</a></li>
<li>Label: <a href="https://www.qobuz.com/nz-en/label/epic-immortal/download-streaming-albums/5035" target="_blank" class="externalLink" rel="nofollow">Epic - Immortal</a></li>
<li>Genre: <a href="https://www.qobuz.com/nz-en/genre/pop-rock/download-streaming-albums" target="_blank" class="externalLink" rel="nofollow">Pop/Rock</a></li>
</ul><b><span style="color: #ff0000">DOWNLOAD:</span></b><br>
<div class="bbCodeBlock bbCodeVfcHH HiddenContent">
<div class="attribution type">Hidden Content:</div>
<blockquote>You must either reply or click 'Like' to see the hidden information contained here.</blockquote>
</div>
<div class="messageTextEndMarker">&nbsp;</div>
</blockquote>
</article>]]></description>
                <author><![CDATA[olobersykes99]]></author>
                </item>

                
                <item>
                <title><![CDATA[【Music Videos】NSYNC - Girlfriend Remix feat Nelly (5.1) (Clean)]]></title>
                <link><![CDATA[https://sharemania.us/threads/nsync-girlfriend-remix-feat-nelly-5-1-clean.236172/]]></link>
                <description><![CDATA[<article>
<blockquote class="messageText SelectQuoteContainer ugc baseHtml">
<img src="https://i.ibb.co/94YWDMs/25-N-Sync-Girlfriend-Remix-feat-Nelly-5-1-VOB-thumbs-2024-01-21-02-53-29.jpg" class="bbCodeImage LbImage" alt="[​IMG]" data-url="https://i.ibb.co/94YWDMs/25-N-Sync-Girlfriend-Remix-feat-Nelly-5-1-VOB-thumbs-2024-01-21-02-53-29.jpg" style=""> <br>
<br>
<div class="ToggleTriggerAnchor bbCodeSpoilerContainer">
<button type="button" class="button bbCodeSpoilerButton ToggleTrigger Tooltip JsOnly" data-target="> .SpoilerTarget"><span>Spoiler: <span class="SpoilerTitle">MediaInfo</span></span></button>
<div class="SpoilerTarget bbCodeSpoilerText">'N Sync-Girlfriend Remix feat Nelly (5.1).VOB<br>
Format : MPEG-PS<br>
File size : 236 MiB<br>
Duration : 4 min 38 s<br>
Overall bit rate mode : Variable<br>
Overall bit rate : 7 107 kb/s<br>
Frame rate : 29.970 FPS<br>
<br>
Video<br>
ID : 224 (0xE0)<br>
Format : MPEG Video<br>
Format version : Version 2<br>
Format profile : Main@Main<br>
Format settings : CustomMatrix / BVOP<br>
Format settings, BVOP : Yes<br>
Format settings, Matrix : Custom<br>
Format settings, GOP : M=3, N=15<br>
Format settings, picture st : Frame<br>
Duration : 4 min 38 s<br>
Bit rate mode : Variable<br>
Bit rate : 6 518 kb/s<br>
Maximum bit rate : 8 000 kb/s<br>
Width : 720 pixels<br>
Height : 480 pixels<br>
Display aspect ratio : 4:3<br>
Frame rate : 29.970 (30000/1001) FPS<br>
Standard : NTSC<br>
Color space : YUV<br>
Chroma subsampling : 4:2:0<br>
Bit depth : 8 bits<br>
Scan type : Interlaced<br>
Scan order : Top Field First<br>
Compression mode : Lossy<br>
Bits/(Pixel*Frame) : 0.629<br>
Time code of first frame : 00:25:41:16<br>
Time code source : Group of pictures header<br>
GOP, Open/Closed : Closed<br>
Stream size : 216 MiB (92%)<br>
<br>
Audio<br>
ID : 189 (0xBD)-129 (0x81)<br>
Format : AC-3<br>
Format/Info : Audio Coding 3<br>
Commercial name : Dolby Digital<br>
Muxing mode : DVD-Video<br>
Duration : 4 min 38 s<br>
Bit rate mode : Constant<br>
Bit rate : 448 kb/s<br>
Channel(s) : 6 channels<br>
Channel layout : L R C LFE Ls Rs<br>
Sampling rate : 48.0 kHz<br>
Frame rate : 31.250 FPS (1536 SPF)<br>
Compression mode : Lossy<br>
Delay relative to video : -202 ms<br>
Stream size : 14.9 MiB (6%)<br>
Service kind : Complete Main<br>
<br>
Text<br>
ID : 189 (0xBD)-32 (0x20)<br>
Format : RLE<br>
Format/Info : Run-length encoding<br>
Muxing mode : DVD-Video</div>
</div><br>
<div class="bbCodeBlock bbCodeVfcHH HiddenContent">
<div class="attribution type">Hidden Content:</div>
<blockquote>You must reply before you can see the hidden data contained here.</blockquote>
</div>
<div class="messageTextEndMarker">&nbsp;</div>
</blockquote>
</article>]]></description>
                <author><![CDATA[DJ-RoGeRs-BS]]></author>
                </item>

                </channel></rss>